<svg width="165" height="120" viewBox="0 0 165 120" fill="none" xmlns="http://www.w3.org/2000/svg">
<path d="M165 49.2862V53.5718C165 57.1223 161.922 60.0004 158.125 60.0004C156.807 60.0004 155.686 60.9628 155.487 62.2658L148.353 108.961C147.385 115.295 141.584 120 134.741 120H30.2586C23.416 120 17.6146 115.295 16.6467 108.961L9.51276 62.2658C9.3137 60.9628 8.19309 60.0004 6.875 60.0004C3.078 60.0004 0 57.1223 0 53.5718V49.2862C0 45.7357 3.078 42.8576 6.875 42.8576H23.2309C25.0824 42.8576 26.8303 42.0028 27.967 40.5413L56.7534 3.53083C59.7312 -0.297364 65.4637 -1.14406 69.5584 1.6403C73.6527 4.42466 74.558 9.78525 71.5802 13.6137L56.3664 33.174C53.3011 37.1151 56.1096 42.8576 61.1025 42.8576H103.898C108.89 42.8576 111.699 37.1151 108.634 33.174L93.4198 13.6134C90.4421 9.78525 91.3476 4.42439 95.4419 1.64003C99.5357 -1.14432 105.269 -0.2979 108.247 3.53056L137.033 40.5413C138.17 42.0028 139.918 42.8576 141.769 42.8576H158.125C161.922 42.8576 165 45.7357 165 49.2862ZM89.375 96.4287V66.4289C89.375 62.8785 86.297 60.0004 82.5 60.0004C78.703 60.0004 75.625 62.8785 75.625 66.4289V96.4287C75.625 99.9791 78.703 102.857 82.5 102.857C86.297 102.857 89.375 99.9791 89.375 96.4287ZM121.458 96.4287V66.4289C121.458 62.8785 118.38 60.0004 114.583 60.0004C110.786 60.0004 107.708 62.8785 107.708 66.4289V96.4287C107.708 99.9791 110.786 102.857 114.583 102.857C118.38 102.857 121.458 99.9791 121.458 96.4287ZM57.2917 96.4287V66.4289C57.2917 62.8785 54.2137 60.0004 50.4167 60.0004C46.6197 60.0004 43.5417 62.8785 43.5417 66.4289V96.4287C43.5417 99.9791 46.6197 102.857 50.4167 102.857C54.2137 102.857 57.2917 99.9791 57.2917 96.4287Z" fill="url(#paint0_linear)" fill-opacity="0.35"/>
<defs>
<linearGradient id="paint0_linear" x1="82.5" y1="-74.4828" x2="200.03" y2="7.00361" gradientUnits="userSpaceOnUse">
<stop stop-color="#AEE2FF"/>
<stop offset="1" stop-color="white"/>
</linearGradient>
</defs>
</svg>
