<svg width="26" height="27" viewBox="0 0 26 27" fill="none" xmlns="http://www.w3.org/2000/svg">
<path d="M22.8411 0.616562H2.74093C1.22771 0.616562 0 1.87138 0 3.41802V23.962C0 25.5087 1.22771 26.7635 2.74093 26.7635H22.8411C24.3543 26.7635 25.582 25.5087 25.582 23.962V3.41802C25.582 1.87138 24.3543 0.616562 22.8411 0.616562ZM5.25345 16.0246C4.87658 16.0246 4.56822 15.7094 4.56822 15.3242V12.0558C4.56822 11.6706 4.87658 11.3555 5.25345 11.3555H20.3286C20.7055 11.3555 21.0138 11.6706 21.0138 12.0558V15.3242C21.0138 15.7094 20.7055 16.0246 20.3286 16.0246H5.25345Z" fill="url(#paint0_linear)"/>
<defs>
<linearGradient id="paint0_linear" x1="-1.26276e-07" y1="0.445352" x2="18.1603" y2="33.4652" gradientUnits="userSpaceOnUse">
<stop stop-color="#39596B"/>
<stop offset="1" stop-color="#20D0B0" stop-opacity="0.81"/>
</linearGradient>
</defs>
</svg>
