<svg width="26" height="27" viewBox="0 0 26 27" fill="none" xmlns="http://www.w3.org/2000/svg">
<path d="M23.2591 0.616562H3.1589C1.64568 0.616562 0.417969 1.87138 0.417969 3.41802V23.962C0.417969 25.5087 1.64568 26.7635 3.1589 26.7635H23.2591C24.7723 26.7635 26 25.5087 26 23.962V3.41802C26 1.87138 24.7723 0.616562 23.2591 0.616562ZM21.4318 15.3242C21.4318 15.7094 21.1234 16.0246 20.7466 16.0246C17.8452 16.0246 15.4931 18.3766 15.4931 21.278V21.394C15.4931 21.7792 15.1847 22.0944 14.8079 22.0944H11.6101C11.2332 22.0944 10.9249 21.7792 10.9249 21.394V21.278C10.9249 18.3766 8.57283 16.0246 5.67142 16.0246C5.29455 16.0246 4.98619 15.7094 4.98619 15.3242V12.0558C4.98619 11.6706 5.29455 11.3555 5.67142 11.3555C8.57283 11.3555 10.9249 9.00342 10.9249 6.10202V5.98602C10.9249 5.60082 11.2332 5.28565 11.6101 5.28565H14.8079C15.1847 5.28565 15.4931 5.60082 15.4931 5.98602V6.10202C15.4931 9.00342 17.8452 11.3555 20.7466 11.3555C21.1234 11.3555 21.4318 11.6706 21.4318 12.0558V15.3242Z" fill="url(#paint0_linear)"/>
<defs>
<linearGradient id="paint0_linear" x1="0.417969" y1="0.445352" x2="18.5783" y2="33.4652" gradientUnits="userSpaceOnUse">
<stop stop-color="#39596B"/>
<stop offset="1" stop-color="#20D0B0" stop-opacity="0.81"/>
</linearGradient>
</defs>
</svg>
